{
    "asset": {
        "version": "2.0",
        "generator": "goxel"
    },
    "buffers": [
        {
            "byteLength": 62160,
            "uri": "data:application/octet-stream;base64,"
        },
        {
            "byteLength": 6660,
            "uri": "data:application/octet-stream;base64,"
        },
        {
            "byteLength": 26544,
            "uri": "data:application/octet-stream;base64,"
        },
        {
            "byteLength": 2844,
            "uri": "data:application/octet-stream;base64,"
        },
        {
            "byteLength": 38080,
            "uri": "data:application/octet-stream;base64,"
        },
        {
            "byteLength": 4080,
            "uri": "data:application/octet-stream;base64,"
        },
        {
            "byteLength": 85792,
            "uri": "data:application/octet-stream;base64,"
        },
        {
            "byteLength": 9192,
            "uri": "data:application/octet-stream;base64,"
        },
        {
            "byteLength": 6272,
            "uri": "data:application/octet-stream;base64,"
        },
        {
            "byteLength": 672,
            "uri": "data:application/octet-stream;base64,"
        }
    ],
    "bufferViews": [
        {
            "buffer": 1,
            "byteLength": 6660,
            "target": 34963
        },
        {
            "buffer": 0,
            "byteLength": 62160,
            "byteStride": 28,
            "target": 34962
        },
        {
            "buffer": 3,
            "byteLength": 2844,
            "target": 34963
        },
        {
            "buffer": 2,
            "byteLength": 26544,
            "byteStride": 28,
            "target": 34962
        },
        {
            "buffer": 5,
            "byteLength": 4080,
            "target": 34963
        },
        {
            "buffer": 4,
            "byteLength": 38080,
            "byteStride": 28,
            "target": 34962
        },
        {
            "buffer": 7,
            "byteLength": 9192,
            "target": 34963
        },
        {
            "buffer": 6,
            "byteLength": 85792,
            "byteStride": 28,
            "target": 34962
        },
        {
            "buffer": 9,
            "byteLength": 672,
            "target": 34963
        },
        {
            "buffer": 8,
            "byteLength": 6272,
            "byteStride": 28,
            "target": 34962
        }
    ],
    "meshes": [
        {
            "primitives": [
                {
                    "attributes": {
                        "POSITION": 1,
                        "COLOR_0": 2,
                        "NORMAL": 3
                    },
                    "indices": 0
                }
            ]
        },
        {
            "primitives": [
                {
                    "attributes": {
                        "POSITION": 5,
                        "COLOR_0": 6,
                        "NORMAL": 7
                    },
                    "indices": 4
                }
            ]
        },
        {
            "primitives": [
                {
                    "attributes": {
                        "POSITION": 9,
                        "COLOR_0": 10,
                        "NORMAL": 11
                    },
                    "indices": 8
                }
            ]
        },
        {
            "primitives": [
                {
                    "attributes": {
                        "POSITION": 13,
                        "COLOR_0": 14,
                        "NORMAL": 15
                    },
                    "indices": 12
                }
            ]
        },
        {
            "primitives": [
                {
                    "attributes": {
                        "POSITION": 17,
                        "COLOR_0": 18,
                        "NORMAL": 19
                    },
                    "indices": 16
                }
            ]
        }
    ],
    "accessors": [
        {
            "bufferView": 0,
            "componentType": 5123,
            "count": 3330,
            "type": "SCALAR"
        },
        {
            "bufferView": 1,
            "componentType": 5126,
            "byteOffset": 0,
            "type": "VEC3",
            "count": 2220,
            "min": [
                0.000000000000,
                5.000000000000,
                0.000000000000
            ],
            "max": [
                16.000000000000,
                16.000000000000,
                16.000000000000
            ]
        },
        {
            "bufferView": 1,
            "componentType": 5121,
            "byteOffset": 24,
            "type": "VEC4",
            "count": 2220,
            "normalized": true
        },
        {
            "bufferView": 1,
            "componentType": 5126,
            "byteOffset": 12,
            "type": "VEC3",
            "count": 2220
        },
        {
            "bufferView": 2,
            "componentType": 5123,
            "count": 1422,
            "type": "SCALAR"
        },
        {
            "bufferView": 3,
            "componentType": 5126,
            "byteOffset": 0,
            "type": "VEC3",
            "count": 948,
            "min": [
                0.000000000000,
                6.000000000000,
                0.000000000000
            ],
            "max": [
                14.000000000000,
                16.000000000000,
                1.000000000000
            ]
        },
        {
            "bufferView": 3,
            "componentType": 5121,
            "byteOffset": 24,
            "type": "VEC4",
            "count": 948,
            "normalized": true
        },
        {
            "bufferView": 3,
            "componentType": 5126,
            "byteOffset": 12,
            "type": "VEC3",
            "count": 948
        },
        {
            "bufferView": 4,
            "componentType": 5123,
            "count": 2040,
            "type": "SCALAR"
        },
        {
            "bufferView": 5,
            "componentType": 5126,
            "byteOffset": 0,
            "type": "VEC3",
            "count": 1360,
            "min": [
                0.000000000000,
                0.000000000000,
                0.000000000000
            ],
            "max": [
                14.000000000000,
                16.000000000000,
                13.000000000000
            ]
        },
        {
            "bufferView": 5,
            "componentType": 5121,
            "byteOffset": 24,
            "type": "VEC4",
            "count": 1360,
            "normalized": true
        },
        {
            "bufferView": 5,
            "componentType": 5126,
            "byteOffset": 12,
            "type": "VEC3",
            "count": 1360
        },
        {
            "bufferView": 6,
            "componentType": 5123,
            "count": 4596,
            "type": "SCALAR"
        },
        {
            "bufferView": 7,
            "componentType": 5126,
            "byteOffset": 0,
            "type": "VEC3",
            "count": 3064,
            "min": [
                0.000000000000,
                0.000000000000,
                0.000000000000
            ],
            "max": [
                16.000000000000,
                16.000000000000,
                16.000000000000
            ]
        },
        {
            "bufferView": 7,
            "componentType": 5121,
            "byteOffset": 24,
            "type": "VEC4",
            "count": 3064,
            "normalized": true
        },
        {
            "bufferView": 7,
            "componentType": 5126,
            "byteOffset": 12,
            "type": "VEC3",
            "count": 3064
        },
        {
            "bufferView": 8,
            "componentType": 5123,
            "count": 336,
            "type": "SCALAR"
        },
        {
            "bufferView": 9,
            "componentType": 5126,
            "byteOffset": 0,
            "type": "VEC3",
            "count": 224,
            "min": [
                0.000000000000,
                6.000000000000,
                0.000000000000
            ],
            "max": [
                1.000000000000,
                15.000000000000,
                4.000000000000
            ]
        },
        {
            "bufferView": 9,
            "componentType": 5121,
            "byteOffset": 24,
            "type": "VEC4",
            "count": 224,
            "normalized": true
        },
        {
            "bufferView": 9,
            "componentType": 5126,
            "byteOffset": 12,
            "type": "VEC3",
            "count": 224
        }
    ],
    "nodes": [
        {
            "matrix": [
                1,
                0,
                0,
                0,
                0,
                0,
                -1,
                0,
                0,
                1,
                0,
                0,
                0,
                0,
                0,
                1
            ],
            "children": [
                1,
                2,
                3,
                4,
                5
            ]
        },
        {
            "translation": [
                -16,
                -16,
                0
            ],
            "mesh": 0
        },
        {
            "translation": [
                0,
                -16,
                0
            ],
            "mesh": 1
        },
        {
            "translation": [
                0,
                0,
                0
            ],
            "mesh": 2
        },
        {
            "translation": [
                -16,
                0,
                0
            ],
            "mesh": 3
        },
        {
            "translation": [
                -16,
                -16,
                16
            ],
            "mesh": 4
        }
    ],
    "scenes": [
        {
            "nodes": [
                0
            ]
        }
    ]
}